<svg width="8" height="9" viewBox="0 0 8 9" fill="none" xmlns="http://www.w3.org/2000/svg">
<path fill-rule="evenodd" clip-rule="evenodd" d="M6.91667 1.22201H6.5V0.388672H5.66667V1.22201H2.33333V0.388672H1.5V1.22201H1.08333C0.620833 1.22201 0.25 1.59701 0.25 2.05534V7.88867C0.25 8.34701 0.620833 8.72201 1.08333 8.72201H6.91667C7.375 8.72201 7.75 8.34701 7.75 7.88867V2.05534C7.75 1.59701 7.375 1.22201 6.91667 1.22201ZM6.91667 7.88867H1.08333V3.30534H6.91667V7.88867ZM1.70833 4.97201C1.70833 4.39701 2.175 3.93034 2.75 3.93034C3.325 3.93034 3.79167 4.39701 3.79167 4.97201C3.79167 5.54701 3.325 6.01367 2.75 6.01367C2.175 6.01367 1.70833 5.54701 1.70833 4.97201Z" fill="#4B7CDD"/>
</svg>
