<svg width="8" height="9" viewBox="0 0 8 9" fill="none" xmlns="http://www.w3.org/2000/svg">
<path fill-rule="evenodd" clip-rule="evenodd" d="M6.91667 1.0013H6.5V0.167969H5.66667V1.0013H2.33333V0.167969H1.5V1.0013H1.08333C0.620833 1.0013 0.25 1.3763 0.25 1.83464V7.66797C0.25 8.1263 0.620833 8.5013 1.08333 8.5013H6.91667C7.375 8.5013 7.75 8.1263 7.75 7.66797V1.83464C7.75 1.3763 7.375 1.0013 6.91667 1.0013ZM6.91667 7.66797H1.08333V3.08464H6.91667V7.66797ZM1.70833 4.7513C1.70833 4.1763 2.175 3.70964 2.75 3.70964C3.325 3.70964 3.79167 4.1763 3.79167 4.7513C3.79167 5.3263 3.325 5.79297 2.75 5.79297C2.175 5.79297 1.70833 5.3263 1.70833 4.7513Z" fill="#9FB1F0"/>
</svg>
